<?xml version="1.0" standalone="no"?><!DOCTYPE svg PUBLIC "-//W3C//DTD SVG 1.1//EN" "http://www.w3.org/Graphics/SVG/1.1/DTD/svg11.dtd"><svg t="1596595239390" class="icon" viewBox="0 0 1024 1024" version="1.1" xmlns="http://www.w3.org/2000/svg" p-id="3189" xmlns:xlink="http://www.w3.org/1999/xlink" width="200" height="200"><defs><style type="text/css"></style></defs><path d="M443.648 448L327.424 308.48a32 32 0 1 1 49.152-40.96L512 430.016l135.424-162.56a32 32 0 1 1 49.152 41.024L580.352 448H672a32 32 0 1 1 0 64h-128v64h128a32 32 0 1 1 0 64h-128v160a32 32 0 1 1-64 0V640h-128a32 32 0 0 1 0-64h128V512h-128a32 32 0 0 1 0-64h91.648zM512 960A448 448 0 1 1 512 64a448 448 0 0 1 0 896z m0-64A384 384 0 1 0 512 128a384 384 0 0 0 0 768z" fill="red" p-id="3190"></path></svg>