<?xml version="1.0" standalone="no"?><!DOCTYPE svg PUBLIC "-//W3C//DTD SVG 1.1//EN" "http://www.w3.org/Graphics/SVG/1.1/DTD/svg11.dtd"><svg t="1596595255455" class="icon" viewBox="0 0 1024 1024" version="1.1" xmlns="http://www.w3.org/2000/svg" p-id="3948" xmlns:xlink="http://www.w3.org/1999/xlink" width="200" height="200"><defs><style type="text/css"></style></defs><path d="M82.773333 970.013605H941.226667c15.899864 0 28.78868-12.864435 28.78868-28.734693 0-15.868517-12.888816-28.738177-28.78868-28.738177H111.563755V84.460844C111.563755 68.592327 98.674939 55.727891 82.775075 55.727891 66.873469 55.727891 53.986395 68.592327 53.986395 84.462585v856.816327c0 15.870259 12.888816 28.734694 28.786938 28.734693z m138.842558-223.637768c33.680544 0 60.976762-30.962068 60.976762-69.140898 0-9.207293-1.602177-17.993143-4.482612-26.03015l120.38966-156.891428a54.399129 54.399129 0 0 0 18.256109 3.152108c17.766748 0 33.755429-8.618667 44.897523-22.364299l113.667483 64.626939c0.369197 37.821823 27.519129 68.371156 60.961089 68.371156 33.685769 0 60.981986-30.96381 60.981986-69.142639 0-1.28-0.03483-2.551293-0.095782-3.813878l158.345578-154.225197c7.551129 3.801687 15.899864 5.924571 24.694422 5.924571 33.680544 0 60.981986-30.951619 60.981986-69.137415 0-38.185796-27.301442-69.140898-60.981986-69.140897-33.670095 0-60.980245 30.955102-60.980245 69.142639 0 7.86634 1.172027 15.419211 3.308843 22.465306l-148.250122 144.730558c-10.424599-9.438912-23.628626-15.086585-38.00468-15.086585-16.572082 0-31.60468 7.512816-42.597007 19.68936l-116.112544-65.922612c-2.150748-35.968871-28.543129-64.393578-60.816544-64.393578-33.67532 0-60.981986 30.956844-60.981987 69.142639 0 10.471619 2.067156 20.401633 5.746939 29.300681l-118.479238 154.860843a54.569796 54.569796 0 0 0-21.425633-4.39902c-33.670095 0-60.981986 30.960327-60.981986 69.140898 0 38.17883 27.311891 69.140898 60.981986 69.140898z" fill="#929292" p-id="3949"></path></svg>